<?xml version="1.0" encoding="utf-8"?>
<!-- Generator: Adobe Illustrator 22.1.0, SVG Export Plug-In . SVG Version: 6.00 Build 0)  -->
<svg version="1.1" id="Calque_1" xmlns="http://www.w3.org/2000/svg" xmlns:xlink="http://www.w3.org/1999/xlink" x="0px" y="0px"
	 viewBox="0 0 160 80" style="enable-background:new 0 0 160 80;" xml:space="preserve">
<style type="text/css">
	.st0{fill:#DEC49F;}
</style>
<g>
	<g>
		<path class="st0" d="M26.4,75c0.1-0.1,0.2-0.1,0.2-0.2c0.1-0.1,0.1-0.2,0.1-0.3c0-0.1,0-0.2,0-0.3H27l-0.1,1.2h-4.5v-0.2
			c0.2,0,0.3,0,0.5-0.1c0.1-0.1,0.2-0.2,0.2-0.5v-5.9c0-0.2-0.1-0.4-0.2-0.5c-0.1-0.1-0.3-0.1-0.5-0.1V68h2.2v0.2
			c-0.2,0-0.3,0-0.5,0.1c-0.1,0.1-0.2,0.2-0.2,0.5v6.4h2.2C26.3,75.1,26.4,75.1,26.4,75z"/>
		<path class="st0" d="M31.6,74.6c0,0.3,0.1,0.5,0.2,0.6c0.1,0.1,0.2,0.2,0.4,0.2v0.2h-1.5v-0.9c-0.1,0.1-0.1,0.2-0.2,0.3
			c-0.1,0.1-0.2,0.2-0.3,0.3c-0.1,0.1-0.3,0.2-0.4,0.2c-0.2,0.1-0.3,0.1-0.5,0.1c-0.3,0-0.6,0-0.8-0.1c-0.2-0.1-0.4-0.2-0.6-0.3
			c-0.2-0.1-0.3-0.3-0.4-0.5c-0.1-0.2-0.1-0.4-0.1-0.6c0-0.5,0.2-0.9,0.7-1.2c0.5-0.3,1.1-0.5,2-0.5h0.8v-0.2c0-0.6-0.1-1-0.2-1.4
			C30.3,70.2,30,70,29.6,70c-0.1,0-0.3,0-0.4,0.1c-0.1,0-0.2,0.1-0.3,0.2s-0.2,0.2-0.2,0.3c-0.1,0.1-0.1,0.2-0.1,0.4
			c0,0.2,0,0.3-0.1,0.3c-0.1,0.1-0.2,0.1-0.3,0.1s-0.2,0-0.3-0.1c-0.1-0.1-0.1-0.2-0.1-0.3c0-0.2,0.1-0.3,0.2-0.5
			c0.1-0.1,0.3-0.3,0.5-0.4c0.2-0.1,0.4-0.2,0.6-0.2c0.2,0,0.4-0.1,0.6-0.1c0.7,0,1.2,0.2,1.5,0.5c0.3,0.4,0.5,0.9,0.5,1.5V74.6z
			 M30.7,72.3h-0.6c-0.2,0-0.5,0-0.7,0.1c-0.2,0.1-0.4,0.2-0.6,0.3c-0.2,0.1-0.3,0.3-0.4,0.5c-0.1,0.2-0.2,0.4-0.2,0.7
			c0,0.2,0,0.3,0.1,0.5c0.1,0.2,0.1,0.3,0.2,0.4c0.1,0.1,0.2,0.2,0.4,0.3c0.1,0.1,0.3,0.1,0.4,0.1c0.2,0,0.4-0.1,0.7-0.2
			c0.3-0.1,0.5-0.4,0.7-0.7V72.3z"/>
		<path class="st0" d="M38.6,69.9c0.4,0,0.8,0.1,1.2,0.2c0.4,0.1,0.7,0.3,0.9,0.6c0.3,0.3,0.5,0.5,0.6,0.9c0.2,0.3,0.2,0.7,0.2,1.1
			c0,0.4-0.1,0.7-0.2,1.1c-0.2,0.3-0.4,0.6-0.6,0.9c-0.3,0.3-0.6,0.5-0.9,0.6c-0.4,0.1-0.7,0.2-1.1,0.2c-0.2,0-0.5,0-0.7-0.1
			c-0.2-0.1-0.4-0.2-0.6-0.3l-0.8,0.3v-8.1c0-0.1,0-0.2-0.1-0.2c0-0.1-0.1-0.1-0.2-0.2c-0.1,0-0.2-0.1-0.3-0.1l0-0.2l1.3-0.3h0.2
			l0,3.9c0.1-0.2,0.3-0.3,0.5-0.4C38.1,69.9,38.4,69.9,38.6,69.9z M38.6,75.2c0.3,0,0.5-0.1,0.8-0.2c0.2-0.1,0.5-0.3,0.7-0.5
			c0.2-0.2,0.4-0.5,0.5-0.8c0.1-0.3,0.2-0.6,0.2-1c0-0.4-0.1-0.7-0.2-1c-0.1-0.3-0.3-0.6-0.5-0.8c-0.2-0.2-0.4-0.4-0.7-0.5
			c-0.2-0.1-0.5-0.2-0.8-0.2c-0.3,0-0.5,0-0.7,0.1s-0.4,0.2-0.5,0.4v4.1c0.2,0.1,0.4,0.2,0.6,0.3S38.4,75.2,38.6,75.2z"/>
		<path class="st0" d="M47.4,73.7c-0.1,0.3-0.2,0.5-0.4,0.7c-0.2,0.2-0.4,0.4-0.6,0.6c-0.2,0.2-0.5,0.3-0.8,0.4
			c-0.3,0.1-0.6,0.1-0.8,0.1c-0.4,0-0.7-0.1-1.1-0.2c-0.3-0.1-0.6-0.3-0.9-0.6c-0.3-0.3-0.5-0.6-0.6-0.9c-0.2-0.3-0.2-0.7-0.2-1.1
			c0-0.4,0.1-0.7,0.2-1.1c0.1-0.3,0.3-0.6,0.6-0.9c0.2-0.3,0.5-0.5,0.8-0.6c0.3-0.1,0.7-0.2,1.1-0.2c0.5,0,0.9,0.1,1.3,0.3
			c0.3,0.2,0.6,0.4,0.8,0.7c0.2,0.3,0.4,0.5,0.5,0.8c0.1,0.3,0.1,0.6,0.1,0.8h-4.5c0,0,0,0.1,0,0.1c0,0,0,0.1,0,0.1
			c0,0.4,0.1,0.7,0.2,1c0.1,0.3,0.3,0.6,0.5,0.8c0.2,0.2,0.4,0.4,0.7,0.5c0.3,0.1,0.5,0.2,0.8,0.2c0.2,0,0.4,0,0.7-0.1
			c0.2-0.1,0.4-0.1,0.6-0.3c0.2-0.1,0.4-0.3,0.6-0.5C47.1,74.2,47.3,74,47.4,73.7L47.4,73.7z M44.8,70c-0.2,0-0.4,0.1-0.7,0.2
			c-0.2,0.1-0.4,0.3-0.6,0.5c-0.2,0.2-0.3,0.4-0.4,0.7c-0.1,0.3-0.2,0.5-0.2,0.9h3.6c0-0.2-0.1-0.4-0.2-0.7s-0.2-0.5-0.3-0.7
			c-0.1-0.2-0.3-0.4-0.5-0.6C45.3,70.1,45.1,70,44.8,70z"/>
		<path class="st0" d="M52.2,74.6c0,0.3,0.1,0.5,0.2,0.6c0.1,0.1,0.2,0.2,0.4,0.2v0.2h-1.5v-0.9c-0.1,0.1-0.1,0.2-0.2,0.3
			c-0.1,0.1-0.2,0.2-0.3,0.3c-0.1,0.1-0.3,0.2-0.4,0.2c-0.2,0.1-0.3,0.1-0.5,0.1c-0.3,0-0.6,0-0.8-0.1c-0.2-0.1-0.4-0.2-0.6-0.3
			c-0.2-0.1-0.3-0.3-0.4-0.5c-0.1-0.2-0.1-0.4-0.1-0.6c0-0.5,0.2-0.9,0.7-1.2c0.5-0.3,1.1-0.5,2-0.5h0.8v-0.2c0-0.6-0.1-1-0.2-1.4
			c-0.2-0.3-0.5-0.5-0.9-0.5c-0.1,0-0.3,0-0.4,0.1c-0.1,0-0.2,0.1-0.3,0.2c-0.1,0.1-0.2,0.2-0.2,0.3C49.1,70.7,49,70.8,49,71
			c0,0.2,0,0.3-0.1,0.3c-0.1,0.1-0.2,0.1-0.3,0.1s-0.2,0-0.3-0.1c-0.1-0.1-0.1-0.2-0.1-0.3c0-0.2,0.1-0.3,0.2-0.5
			c0.1-0.1,0.3-0.3,0.5-0.4c0.2-0.1,0.4-0.2,0.6-0.2c0.2,0,0.4-0.1,0.6-0.1c0.7,0,1.2,0.2,1.5,0.5c0.3,0.4,0.5,0.9,0.5,1.5V74.6z
			 M51.3,72.3h-0.6c-0.2,0-0.5,0-0.7,0.1c-0.2,0.1-0.4,0.2-0.6,0.3c-0.2,0.1-0.3,0.3-0.4,0.5c-0.1,0.2-0.2,0.4-0.2,0.7
			c0,0.2,0,0.3,0.1,0.5c0.1,0.2,0.1,0.3,0.2,0.4c0.1,0.1,0.2,0.2,0.4,0.3c0.1,0.1,0.3,0.1,0.4,0.1c0.2,0,0.4-0.1,0.7-0.2
			c0.3-0.1,0.5-0.4,0.7-0.7V72.3z"/>
		<path class="st0" d="M56,69.9h2v0.2c-0.2,0-0.3,0-0.5,0.1c-0.1,0.1-0.2,0.2-0.2,0.5v3.8c0,0.1,0,0.2,0.1,0.2
			c0,0.1,0.1,0.1,0.2,0.1c0.1,0,0.2,0.1,0.3,0.1l0,0.2l-1.3,0.3h-0.2v-1.2c-0.1,0.2-0.2,0.3-0.3,0.4c-0.1,0.1-0.2,0.3-0.4,0.4
			c-0.1,0.1-0.3,0.2-0.5,0.3c-0.2,0.1-0.4,0.1-0.6,0.1c-0.6,0-1.1-0.2-1.4-0.5c-0.3-0.3-0.5-0.7-0.5-1.2v-3.1c0-0.2-0.1-0.4-0.2-0.5
			c-0.1-0.1-0.3-0.1-0.5-0.1v-0.2h2v0.2c-0.2,0-0.3,0-0.4,0.1c-0.1,0.1-0.2,0.2-0.2,0.5v3.2c0,0.2,0,0.3,0.1,0.5
			c0.1,0.2,0.2,0.3,0.3,0.4c0.1,0.1,0.2,0.2,0.4,0.3c0.1,0.1,0.3,0.1,0.4,0.1c0.2,0,0.4,0,0.6-0.1c0.2-0.1,0.3-0.1,0.4-0.2
			c0.1-0.1,0.2-0.2,0.3-0.4c0.1-0.1,0.2-0.3,0.2-0.4v-3.3c0-0.2-0.1-0.4-0.2-0.5c-0.1-0.1-0.3-0.1-0.5-0.1V69.9z"/>
		<path class="st0" d="M60.4,75.2c0.2,0,0.3,0,0.4-0.1c0.1,0,0.2-0.1,0.3-0.2c0.1-0.1,0.1-0.2,0.2-0.2c0-0.1,0.1-0.2,0.1-0.3h0
			c0,0.1-0.1,0.2-0.1,0.4c-0.1,0.1-0.1,0.2-0.2,0.3c-0.1,0.1-0.2,0.2-0.3,0.2c-0.1,0.1-0.3,0.1-0.5,0.1c-0.5,0-0.9-0.1-1.1-0.4
			c-0.2-0.3-0.3-0.7-0.3-1.2v-3.7h-0.6c0.1-0.1,0.3-0.2,0.4-0.3c0.1-0.1,0.3-0.3,0.4-0.4c0.1-0.1,0.2-0.3,0.4-0.4
			c0.1-0.1,0.2-0.3,0.3-0.4v1.4h0.7v0.2h-0.7v3.7c0,0.2,0,0.4,0,0.5c0,0.2,0.1,0.3,0.1,0.4c0.1,0.1,0.1,0.2,0.2,0.3
			C60.2,75.2,60.3,75.2,60.4,75.2z"/>
		<path class="st0" d="M74.6,70c-0.3,0-0.5,0.1-0.8,0.2c-0.2,0.1-0.5,0.3-0.7,0.6c-0.2,0.2-0.3,0.5-0.5,0.8c-0.1,0.3-0.2,0.7-0.2,1
			c0,0.4,0.1,0.7,0.2,1c0.1,0.3,0.3,0.6,0.5,0.8c0.2,0.2,0.4,0.4,0.7,0.5c0.2,0.1,0.5,0.2,0.8,0.2c0.2,0,0.4,0,0.6-0.1
			c0.2-0.1,0.4-0.1,0.6-0.3c0.2-0.1,0.4-0.3,0.5-0.5c0.2-0.2,0.3-0.4,0.4-0.7h0.1c-0.2,0.5-0.5,1-0.9,1.3c-0.4,0.3-0.9,0.5-1.5,0.5
			c-0.4,0-0.7-0.1-1.1-0.2c-0.3-0.1-0.6-0.3-0.9-0.6c-0.2-0.3-0.4-0.6-0.6-0.9c-0.1-0.3-0.2-0.7-0.2-1.1c0-0.4,0.1-0.7,0.2-1.1
			c0.1-0.3,0.3-0.6,0.6-0.9c0.2-0.3,0.5-0.5,0.9-0.6c0.3-0.1,0.7-0.2,1.1-0.2c0.3,0,0.6,0.1,0.9,0.2c0.3,0.1,0.6,0.2,0.8,0.4
			c0.2,0.2,0.4,0.3,0.5,0.6c0.1,0.2,0.2,0.4,0.2,0.6c0,0.1,0,0.2-0.1,0.3c-0.1,0.1-0.2,0.1-0.3,0.1c-0.1,0-0.2,0-0.2-0.1
			c-0.1-0.1-0.1-0.1-0.1-0.2h0c0-0.2,0-0.3-0.1-0.5c-0.1-0.2-0.2-0.4-0.3-0.5c-0.1-0.2-0.3-0.3-0.5-0.4C75,70.1,74.8,70,74.6,70z"/>
		<path class="st0" d="M79.8,69.9c0.4,0,0.7,0.1,1.1,0.2c0.3,0.1,0.6,0.3,0.9,0.6c0.2,0.3,0.4,0.5,0.6,0.9c0.1,0.3,0.2,0.7,0.2,1.1
			c0,0.4-0.1,0.8-0.2,1.1c-0.1,0.3-0.3,0.6-0.6,0.9c-0.2,0.3-0.5,0.5-0.9,0.6c-0.3,0.1-0.7,0.2-1.1,0.2c-0.4,0-0.7-0.1-1.1-0.2
			c-0.3-0.1-0.6-0.3-0.9-0.6c-0.2-0.3-0.4-0.5-0.6-0.9c-0.1-0.3-0.2-0.7-0.2-1.1c0-0.4,0.1-0.7,0.2-1.1c0.1-0.3,0.3-0.6,0.6-0.9
			c0.2-0.3,0.5-0.5,0.9-0.6C79.1,70,79.4,69.9,79.8,69.9z M79.8,75.3c0.3,0,0.5-0.1,0.7-0.2c0.2-0.1,0.4-0.3,0.6-0.6
			c0.2-0.2,0.3-0.5,0.4-0.8c0.1-0.3,0.1-0.7,0.1-1c0-0.4,0-0.7-0.1-1s-0.2-0.6-0.4-0.8c-0.2-0.2-0.4-0.4-0.6-0.6
			c-0.2-0.1-0.5-0.2-0.7-0.2s-0.5,0.1-0.7,0.2c-0.2,0.1-0.4,0.3-0.6,0.6c-0.2,0.2-0.3,0.5-0.4,0.8s-0.1,0.7-0.1,1c0,0.4,0,0.7,0.1,1
			c0.1,0.3,0.2,0.6,0.4,0.8c0.2,0.2,0.4,0.4,0.6,0.6C79.3,75.3,79.6,75.3,79.8,75.3z"/>
		<path class="st0" d="M87.6,75.2c0.1,0.1,0.3,0.1,0.5,0.1v0.2h-2v-0.2c0.2,0,0.3,0,0.5-0.1c0.1-0.1,0.2-0.2,0.2-0.5v-3.2
			c0-0.2,0-0.4-0.1-0.5c-0.1-0.2-0.2-0.3-0.3-0.4c-0.1-0.1-0.2-0.2-0.4-0.3c-0.1-0.1-0.3-0.1-0.4-0.1c-0.2,0-0.4,0-0.6,0.1
			c-0.2,0.1-0.3,0.2-0.4,0.3c-0.1,0.1-0.2,0.2-0.3,0.4c-0.1,0.1-0.2,0.3-0.2,0.4v3.3c0,0.2,0.1,0.4,0.2,0.5c0.1,0.1,0.3,0.1,0.4,0.1
			v0.2h-2v-0.2c0.2,0,0.3,0,0.5-0.1c0.1-0.1,0.2-0.2,0.2-0.5v-3.8c0-0.1,0-0.2-0.1-0.2c0-0.1-0.1-0.1-0.2-0.1
			c-0.1,0-0.2-0.1-0.3-0.1l0-0.2l1.3-0.3h0.2l0,1.2c0.1-0.1,0.1-0.3,0.2-0.4c0.1-0.2,0.2-0.3,0.4-0.4c0.1-0.1,0.3-0.2,0.5-0.3
			c0.2-0.1,0.4-0.1,0.6-0.1c0.6,0,1.1,0.2,1.4,0.5c0.3,0.3,0.5,0.7,0.5,1.2v3.1C87.5,74.9,87.5,75.1,87.6,75.2z"/>
		<path class="st0" d="M93.4,75.2c0.1,0.1,0.3,0.1,0.5,0.1v0.2h-2v-0.2c0.2,0,0.3,0,0.5-0.1c0.1-0.1,0.2-0.2,0.2-0.5v-3.2
			c0-0.2,0-0.4-0.1-0.5c-0.1-0.2-0.2-0.3-0.3-0.4s-0.2-0.2-0.4-0.3c-0.1-0.1-0.3-0.1-0.4-0.1c-0.2,0-0.4,0-0.6,0.1
			c-0.2,0.1-0.3,0.2-0.4,0.3c-0.1,0.1-0.2,0.2-0.3,0.4c-0.1,0.1-0.2,0.3-0.2,0.4v3.3c0,0.2,0.1,0.4,0.2,0.5c0.1,0.1,0.3,0.1,0.4,0.1
			v0.2h-2v-0.2c0.2,0,0.3,0,0.5-0.1c0.1-0.1,0.2-0.2,0.2-0.5v-3.8c0-0.1,0-0.2-0.1-0.2c0-0.1-0.1-0.1-0.2-0.1
			c-0.1,0-0.2-0.1-0.3-0.1l0-0.2l1.3-0.3h0.2l0,1.2c0.1-0.1,0.1-0.3,0.2-0.4c0.1-0.2,0.2-0.3,0.4-0.4c0.1-0.1,0.3-0.2,0.5-0.3
			c0.2-0.1,0.4-0.1,0.6-0.1c0.6,0,1.1,0.2,1.4,0.5c0.3,0.3,0.5,0.7,0.5,1.2v3.1C93.3,74.9,93.3,75.1,93.4,75.2z"/>
		<path class="st0" d="M99.1,73.7c-0.1,0.3-0.2,0.5-0.4,0.7c-0.2,0.2-0.4,0.4-0.6,0.6c-0.2,0.2-0.5,0.3-0.8,0.4
			c-0.3,0.1-0.6,0.1-0.8,0.1c-0.4,0-0.7-0.1-1.1-0.2c-0.3-0.1-0.6-0.3-0.9-0.6c-0.3-0.3-0.5-0.6-0.6-0.9c-0.2-0.3-0.2-0.7-0.2-1.1
			c0-0.4,0.1-0.7,0.2-1.1c0.1-0.3,0.3-0.6,0.6-0.9c0.2-0.3,0.5-0.5,0.8-0.6c0.3-0.1,0.7-0.2,1.1-0.2c0.5,0,0.9,0.1,1.3,0.3
			c0.3,0.2,0.6,0.4,0.8,0.7c0.2,0.3,0.4,0.5,0.5,0.8c0.1,0.3,0.1,0.6,0.1,0.8h-4.5c0,0,0,0.1,0,0.1c0,0,0,0.1,0,0.1
			c0,0.4,0.1,0.7,0.2,1c0.1,0.3,0.3,0.6,0.5,0.8c0.2,0.2,0.4,0.4,0.7,0.5c0.3,0.1,0.5,0.2,0.8,0.2c0.2,0,0.4,0,0.7-0.1
			c0.2-0.1,0.4-0.1,0.6-0.3c0.2-0.1,0.4-0.3,0.6-0.5C98.9,74.2,99,74,99.1,73.7L99.1,73.7z M96.5,70c-0.2,0-0.4,0.1-0.7,0.2
			c-0.2,0.1-0.4,0.3-0.6,0.5c-0.2,0.2-0.3,0.4-0.4,0.7c-0.1,0.3-0.2,0.5-0.2,0.9h3.6c0-0.2-0.1-0.4-0.2-0.7
			c-0.1-0.2-0.2-0.5-0.3-0.7s-0.3-0.4-0.5-0.6C97,70.1,96.8,70,96.5,70z"/>
		<path class="st0" d="M102.5,70c-0.3,0-0.5,0.1-0.8,0.2c-0.2,0.1-0.5,0.3-0.7,0.6c-0.2,0.2-0.3,0.5-0.5,0.8c-0.1,0.3-0.2,0.7-0.2,1
			c0,0.4,0.1,0.7,0.2,1c0.1,0.3,0.3,0.6,0.5,0.8c0.2,0.2,0.4,0.4,0.7,0.5c0.2,0.1,0.5,0.2,0.8,0.2c0.2,0,0.4,0,0.6-0.1
			c0.2-0.1,0.4-0.1,0.6-0.3c0.2-0.1,0.4-0.3,0.5-0.5c0.2-0.2,0.3-0.4,0.4-0.7h0.1c-0.2,0.5-0.5,1-0.9,1.3c-0.4,0.3-0.9,0.5-1.5,0.5
			c-0.4,0-0.7-0.1-1.1-0.2c-0.3-0.1-0.6-0.3-0.9-0.6c-0.2-0.3-0.4-0.6-0.6-0.9c-0.1-0.3-0.2-0.7-0.2-1.1c0-0.4,0.1-0.7,0.2-1.1
			c0.1-0.3,0.3-0.6,0.6-0.9c0.2-0.3,0.5-0.5,0.9-0.6c0.3-0.1,0.7-0.2,1.1-0.2c0.3,0,0.6,0.1,0.9,0.2c0.3,0.1,0.6,0.2,0.8,0.4
			c0.2,0.2,0.4,0.3,0.5,0.6c0.1,0.2,0.2,0.4,0.2,0.6c0,0.1,0,0.2-0.1,0.3c-0.1,0.1-0.2,0.1-0.3,0.1c-0.1,0-0.2,0-0.2-0.1
			c-0.1-0.1-0.1-0.1-0.1-0.2h0c0-0.2,0-0.3-0.1-0.5c-0.1-0.2-0.2-0.4-0.3-0.5c-0.1-0.2-0.3-0.3-0.5-0.4
			C102.9,70.1,102.7,70,102.5,70z"/>
		<path class="st0" d="M106.8,75.2c0.2,0,0.3,0,0.4-0.1c0.1,0,0.2-0.1,0.3-0.2c0.1-0.1,0.1-0.2,0.2-0.2c0-0.1,0.1-0.2,0.1-0.3h0
			c0,0.1-0.1,0.2-0.1,0.4c-0.1,0.1-0.1,0.2-0.2,0.3c-0.1,0.1-0.2,0.2-0.3,0.2c-0.1,0.1-0.3,0.1-0.5,0.1c-0.5,0-0.9-0.1-1.1-0.4
			c-0.2-0.3-0.3-0.7-0.3-1.2v-3.7h-0.6c0.1-0.1,0.3-0.2,0.4-0.3c0.1-0.1,0.3-0.3,0.4-0.4c0.1-0.1,0.2-0.3,0.4-0.4
			c0.1-0.1,0.2-0.3,0.3-0.4v1.4h0.7v0.2H106v3.7c0,0.2,0,0.4,0,0.5c0,0.2,0.1,0.3,0.1,0.4c0.1,0.1,0.1,0.2,0.2,0.3
			C106.5,75.2,106.6,75.2,106.8,75.2z"/>
		<path class="st0" d="M113.5,67.8l-1.6,1.9H111l1.2-1.9H113.5z"/>
		<path class="st0" d="M120.2,73.7c-0.1,0.3-0.2,0.5-0.4,0.7c-0.2,0.2-0.4,0.4-0.6,0.6c-0.2,0.2-0.5,0.3-0.8,0.4
			c-0.3,0.1-0.6,0.1-0.8,0.1c-0.4,0-0.7-0.1-1.1-0.2c-0.3-0.1-0.6-0.3-0.9-0.6c-0.3-0.3-0.5-0.6-0.6-0.9c-0.2-0.3-0.2-0.7-0.2-1.1
			c0-0.4,0.1-0.7,0.2-1.1c0.1-0.3,0.3-0.6,0.6-0.9c0.2-0.3,0.5-0.5,0.8-0.6c0.3-0.1,0.7-0.2,1.1-0.2c0.5,0,0.9,0.1,1.3,0.3
			c0.3,0.2,0.6,0.4,0.8,0.7c0.2,0.3,0.4,0.5,0.5,0.8c0.1,0.3,0.1,0.6,0.1,0.8h-4.5c0,0,0,0.1,0,0.1c0,0,0,0.1,0,0.1
			c0,0.4,0.1,0.7,0.2,1c0.1,0.3,0.3,0.6,0.5,0.8c0.2,0.2,0.4,0.4,0.7,0.5c0.3,0.1,0.5,0.2,0.8,0.2c0.2,0,0.4,0,0.7-0.1
			c0.2-0.1,0.4-0.1,0.6-0.3c0.2-0.1,0.4-0.3,0.6-0.5C119.9,74.2,120.1,74,120.2,73.7L120.2,73.7z M117.6,70c-0.2,0-0.4,0.1-0.7,0.2
			c-0.2,0.1-0.4,0.3-0.6,0.5c-0.2,0.2-0.3,0.4-0.4,0.7c-0.1,0.3-0.2,0.5-0.2,0.9h3.6c0-0.2-0.1-0.4-0.2-0.7
			c-0.1-0.2-0.2-0.5-0.3-0.7s-0.3-0.4-0.5-0.6C118.1,70.1,117.9,70,117.6,70z"/>
		<path class="st0" d="M114.2,73.7c-0.1,0.3-0.2,0.5-0.4,0.7c-0.2,0.2-0.4,0.4-0.6,0.6c-0.2,0.2-0.5,0.3-0.8,0.4
			c-0.3,0.1-0.6,0.1-0.8,0.1c-0.4,0-0.7-0.1-1.1-0.2c-0.3-0.1-0.6-0.3-0.9-0.6c-0.3-0.3-0.5-0.6-0.6-0.9c-0.2-0.3-0.2-0.7-0.2-1.1
			c0-0.4,0.1-0.7,0.2-1.1c0.1-0.3,0.3-0.6,0.6-0.9c0.2-0.3,0.5-0.5,0.8-0.6c0.3-0.1,0.7-0.2,1.1-0.2c0.5,0,0.9,0.1,1.3,0.3
			c0.3,0.2,0.6,0.4,0.8,0.7c0.2,0.3,0.4,0.5,0.5,0.8c0.1,0.3,0.1,0.6,0.1,0.8h-4.5c0,0,0,0.1,0,0.1c0,0,0,0.1,0,0.1
			c0,0.4,0.1,0.7,0.2,1c0.1,0.3,0.3,0.6,0.5,0.8c0.2,0.2,0.4,0.4,0.7,0.5c0.3,0.1,0.5,0.2,0.8,0.2c0.2,0,0.4,0,0.7-0.1
			c0.2-0.1,0.4-0.1,0.6-0.3c0.2-0.1,0.4-0.3,0.6-0.5C113.9,74.2,114,74,114.2,73.7L114.2,73.7z M111.5,70c-0.2,0-0.4,0.1-0.7,0.2
			c-0.2,0.1-0.4,0.3-0.6,0.5c-0.2,0.2-0.3,0.4-0.4,0.7c-0.1,0.3-0.2,0.5-0.2,0.9h3.6c0-0.2-0.1-0.4-0.2-0.7
			c-0.1-0.2-0.2-0.5-0.3-0.7s-0.3-0.4-0.5-0.6C112.1,70.1,111.8,70,111.5,70z"/>
		<path class="st0" d="M67.2,67.8l-1.6,1.9h-0.8l1.2-1.9H67.2z"/>
		<path class="st0" d="M67.9,73.7c-0.1,0.3-0.2,0.5-0.4,0.7c-0.2,0.2-0.4,0.4-0.6,0.6c-0.2,0.2-0.5,0.3-0.8,0.4
			c-0.3,0.1-0.6,0.1-0.8,0.1c-0.4,0-0.7-0.1-1.1-0.2c-0.3-0.1-0.6-0.3-0.9-0.6c-0.3-0.3-0.5-0.6-0.6-0.9c-0.2-0.3-0.2-0.7-0.2-1.1
			c0-0.4,0.1-0.7,0.2-1.1c0.1-0.3,0.3-0.6,0.6-0.9c0.2-0.3,0.5-0.5,0.8-0.6c0.3-0.1,0.7-0.2,1.1-0.2c0.5,0,0.9,0.1,1.3,0.3
			c0.3,0.2,0.6,0.4,0.8,0.7c0.2,0.3,0.4,0.5,0.5,0.8c0.1,0.3,0.1,0.6,0.1,0.8h-4.5c0,0,0,0.1,0,0.1c0,0,0,0.1,0,0.1
			c0,0.4,0.1,0.7,0.2,1c0.1,0.3,0.3,0.6,0.5,0.8c0.2,0.2,0.4,0.4,0.7,0.5c0.3,0.1,0.5,0.2,0.8,0.2c0.2,0,0.4,0,0.7-0.1
			c0.2-0.1,0.4-0.1,0.6-0.3c0.2-0.1,0.4-0.3,0.6-0.5C67.6,74.2,67.7,74,67.9,73.7L67.9,73.7z M65.2,70c-0.2,0-0.4,0.1-0.7,0.2
			c-0.2,0.1-0.4,0.3-0.6,0.5c-0.2,0.2-0.3,0.4-0.4,0.7c-0.1,0.3-0.2,0.5-0.2,0.9H67c0-0.2-0.1-0.4-0.2-0.7c-0.1-0.2-0.2-0.5-0.3-0.7
			s-0.3-0.4-0.5-0.6C65.8,70.1,65.5,70,65.2,70z"/>
	</g>
	<path class="st0" d="M134.6,58.9c-0.2,0.1-0.1,0.3-0.2,0.5c-0.3,0.4-0.4,0.8-0.5,1.3c0,0,0,0,0,0c-0.3,0.6-0.5,1.1-0.7,1.7
		c-0.3,0.9-1,1.8-1,2.8c0,0.1-0.1,0.2-0.1,0.3c-0.3,0.5-0.5,1-0.8,1.5c0,0.1,0,0.2-0.1,0.3c0,0.1-0.1,0.2-0.1,0.3c0,0.1,0,0.1,0,0.2
		c-0.6,1.4-1.2,2.7-1.8,4c-1.2,2.4-3.2,3.8-6,3.9c-1.2,0-2.1-0.6-2.4-1.5c-0.3-1,0.2-2.5,1-3.1c0.6-0.4,1.1-0.2,1.6,0.1
		c1.6,0.9,3.3,0.3,4.1-1c0.1-0.1,0.2-0.2,0.2-0.4c0.8-0.9,1.2-2,1.7-3c0.1-0.3,0-0.5-0.1-0.7c-0.6-1.4-1.2-2.7-1.8-4.1
		c-0.1-0.1-0.1-0.2-0.2-0.4c-0.4-0.8-0.7-1.7-1.1-2.5c0-0.1-0.1-0.2-0.1-0.3c-0.2-0.5-0.4-1-0.6-1.4c0-0.1-0.1-0.1-0.1-0.2
		c0-0.1-0.1-0.2-0.1-0.3c0-0.1-0.1-0.2-0.1-0.3c-1.2-2.6-2.4-5.2-3.5-7.8c-0.6-1.3-1.6-2.2-3-2.6c-0.3-0.1-0.5-0.2-0.8-0.3
		c-0.4-0.2-0.6-0.5-0.4-1c0.1-0.4,0.3-0.6,0.8-0.6c3.2,0,6.3,0,9.5,0c0.7,0,0.7,0.4,0.8,0.8c0.2,0.5-0.2,0.7-0.6,0.8
		c-1.6,0.6-1.8,0.8-1.2,2.4c1.4,4.1,3.3,8.1,5,12.3c1.5-3.4,2.9-6.7,4.1-10.1c0.3-0.9,0.6-1.9,0.8-2.8c0.1-0.7-0.1-1.2-0.8-1.4
		c-0.4-0.1-0.8-0.2-1.2-0.4c-0.6-0.2-0.6-0.7-0.6-1.3c0.1-0.6,0.5-0.4,0.8-0.4c2.3,0,4.6,0,6.9,0c0.4,0,0.8,0,0.9,0.6
		c0,0.4,0,1-0.5,1.1c-1.7,0.4-2.5,1.7-3.2,3.1c-0.4,0.7-0.7,1.5-1.1,2.3c0,0,0,0,0,0c-0.2,0.1-0.2,0.1,0,0.2c0,0.3-0.2,0.4-0.4,0.6
		c-0.9,1.8-1.7,3.7-2.4,5.6c-0.2,0.2-0.3,0.5-0.3,0.7C134.7,58.6,134.7,58.7,134.6,58.9z"/>
	<path class="st0" d="M78.8,65.9c-0.9,0-1.8,0-2.7,0c-0.3,0-0.6-0.1-0.9-0.1c-2.8,0-5.6,0-8.4,0c-1,0-1.2-0.5-0.8-1.4
		c0.1-0.2,0.2-0.3,0.3-0.5c0-0.1,0.1-0.1,0.1-0.2c0-0.1,0.1-0.1,0.1-0.2c0,0,0.1-0.1,0.1-0.1c0.3-0.3,0.4-0.6,0.6-0.9c0,0,0,0,0,0
		c0.1-0.1,0.1-0.1,0.2-0.2c0,0,0,0,0,0c0-0.1,0.1-0.1,0.1-0.2c0,0,0.1-0.1,0.1-0.1c0.6-0.7,1.1-1.5,1.5-2.4c0,0,0,0,0,0
		c0-0.1,0.1-0.1,0.1-0.2c0,0,0,0,0,0c0.1-0.1,0.2-0.2,0.2-0.3c0,0,0,0,0,0c0.3-0.5,0.6-1,0.9-1.4c0,0,0,0,0,0c0-0.1,0.1-0.1,0.1-0.2
		c2.2-3.4,4.3-6.9,6.5-10.3c0.3-0.5,0.4-0.8-0.4-0.8c-1.6,0.1-3.1,0-4.7,0.1c-2,0.2-3.4,1.3-4,3.2c-0.1,0.2-0.2,0.4-0.2,0.7
		c-0.1,0.4-0.3,0.8-0.9,0.6c-0.5-0.2-0.8-0.6-0.7-1.1c0.5-1.7,1.1-3.5,1.7-5.2c0.1-0.4,0.5-0.4,0.8-0.4c4.7,0,9.3,0,14,0
		c1.1,0,1.4,0.5,0.8,1.5c-3,4.9-6.1,9.8-9.1,14.7c-0.7,1.1-1.4,2.1-2,3.4c2.3-0.1,4.5,0.2,6.7-0.4c1.4-0.3,2.4-1.1,3-2.4
		c0.3-0.6,0.6-1.2,0.8-1.8c0.5-1,0.8-1.1,1.6-0.2c0,0.1,0,0.2,0,0.3c-0.4,1.9-0.8,3.7-1.3,5.6c-0.2,0.7-0.5,0.9-1.2,0.9
		C80.8,65.8,79.8,65.9,78.8,65.9z"/>
	<path class="st0" d="M112.2,33.6c0.1,0,0.1,0,0.2-0.1c0.1,0,0.2-0.1,0.3-0.1c0,0,0.1,0,0.1,0c0.4-0.2,0.9-0.4,1.3-0.6
		c0.7-0.3,1.1-0.1,1.3,0.6c0.1,0.3,0,0.7,0,1c0,8.5,0,17,0,25.5c0,0.2,0,0.5,0,0.7c0,2.6,0.1,3.3,3,3.7c0,0.1,0,0.1,0.1,0.1
		c0,1.1-0.3,1.4-1.3,1.4c-2.7,0-5.3-0.1-8,0c-1.3,0-1.4-0.1-1.3-1.4c0.2-0.3,0.5-0.3,0.7-0.3c1.5-0.4,1.8-0.8,1.9-2.4
		c0.2-5.6,0.2-11.2,0.1-16.8c0-2.2-0.1-4.3-0.2-6.5c-0.1-1.3-0.4-1.5-1.6-1.7c-0.4-0.1-0.9-0.2-1.3-0.4c-0.3-0.9-0.1-1.3,0.8-1.6
		C109.5,34.4,110.9,34.2,112.2,33.6z"/>
	<path class="st0" d="M106.1,65.2c-0.1,0.1-0.3,0.2-0.4,0.3c-2.3,1.6-5.5,1.3-7.5-2.2c-0.4,0.5-0.8,0.9-1.1,1.3
		c-0.1,0-0.1,0-0.1,0.1c-0.2,0.2-0.4,0.3-0.6,0.5c0,0,0,0,0,0c-0.3,0-0.4,0.2-0.5,0.4c-1.2,0.5-2.5,0.8-3.8,0.9
		c-0.5-0.1-1.1-0.1-1.6-0.2c0,0,0,0,0,0c-0.1-0.1-0.2-0.1-0.3-0.1c-0.2-0.1-0.5-0.1-0.7-0.2c-1-0.6-2-1.3-2.5-2.4
		c-1-2.3-0.8-4.4,0.8-6.3c0,0,0,0,0,0c0.6-0.6,1.2-1.1,1.9-1.5c1.1-0.7,2.4-1.1,3.6-1.6l0,0c0,0,0,0,0,0c0.4,0,0.8-0.2,1.2-0.4
		c1.2-0.3,2.4-0.6,3.5-1c0.5-0.1,0.6-0.5,0.6-1c0-1.3,0-2.5-0.4-3.7c-0.4-1.2-1.3-1.9-2.5-2.1c-1.5-0.2-2.8,0.2-3.6,1.7
		c-0.5,0.9-0.9,1.8-1.3,2.7c-0.4,0.9-1.1,1.2-1.9,1c-0.8-0.1-1.4-0.9-1.5-1.8c-0.1-1.1,0.4-2,1.1-2.8c2.6-2.8,7.5-3.9,11.1-2.5
		c2.5,1,3.7,2.9,3.8,5.5c0.1,3.1,0,6.2-0.1,9.2c0,0.9,0,1.7,0.1,2.6c0.1,1.8,1.1,2.3,2.7,1.5c0.4-0.2,0.7-0.6,1.1-0.1
		c0,0.1,0,0.1,0,0.2c0,0.2,0,0.4,0,0.6C106.9,64.3,106.3,64.6,106.1,65.2z M98.4,57.9c0-1,0-1.7,0-2.4c0.1-0.7-0.3-0.8-0.8-0.6
		c-1.3,0.5-2.7,0.9-3.9,1.5c-1.9,1-2.5,2.3-2.4,4.5c0.1,1.4,2.4,2.9,3.8,2.2c0.6-0.3,1.1-0.6,1.7-0.9c0.5-0.3,0.8-0.7,1.1-1.2
		C98.6,60,98.3,58.8,98.4,57.9z"/>
	<path class="st0" d="M50.7,54.6c4.1,0,8.2,0,12.3,0c0.5,0,0.9-0.4,0.9-0.9c0-1.5-0.4-3-0.8-4.5c-0.5-1-1.2-2-1.9-2.9
		c0,0-0.1-0.1-0.1-0.1c-0.3-0.2-0.5-0.4-0.8-0.7c0,0,0,0,0,0c-0.1-0.1-0.3-0.2-0.4-0.3c0,0,0,0,0,0c0,0,0,0,0,0
		c-0.9,0.7-1.8,1.4-2.7,1.9c0.2,0.2,0.4,0.4,0.5,0.7c0.7,1.3,0.9,2.7,1,4.1c0,0.5-0.2,0.5-0.6,0.5c-1.3,0-2.6,0-3.9,0c0,0,0,0,0,0
		c-1.3,0-2.6,0-3.9,0c-0.2,0-0.5,0.1-0.6-0.3c-0.3-1.7,1.5-5,3.2-5.8c0.3-0.1,0.6-0.2,0.9-0.3c0.5-0.7,1-1.5,1.5-2.4
		c-1.9,0-3.7,0.5-5.4,1.5c-0.1,0-0.2,0-0.3,0c-0.3,0.1-0.1,0.6-0.5,0.6c-1.1,1-2.1,2.1-2.9,3.3c0,0,0,0.1,0,0.1
		c-0.1,0.1-0.1,0.2-0.2,0.3c-0.4,1-0.8,2-1,3c-0.4,1.9-0.3,3.8,0.1,5.7c0,0.1,0.1,0.2,0.1,0.3c0.7,2.7,2.1,4.9,4.3,6.5
		c0.3,0.2,0.5,0.4,0.8,0.5c0.6,0,1,0.3,1.5,0.6c0.2,0.1,0.3,0.1,0.5,0.2c1,0.1,2,0.2,3,0.2c1.5,0,2.9-0.4,4.2-1
		c0.4-0.2,0.8-0.4,1.1-0.6c0.2-0.1,0.4-0.2,0.6-0.4c0.1-0.1,0.1-0.2,0.2-0.2c0.3-0.2,0.8-0.6,1.1-0.8c0.2-0.2,0.4-0.3,0.6-0.5
		c0,0,0.1-0.1,0.1-0.1c0.1-0.1,0.2-0.2,0.3-0.3c0.5-0.5,0.4-1,0-1.4c-0.4-0.5-0.8,0-1.2,0.2c-0.5,0.3-1,0.7-1.6,0.9
		c-0.1,0.2-0.2,0.2-0.4,0.2c0,0,0,0,0,0c0,0-0.2,0-0.2,0.1l-0.5,0.2c-0.9,0.3-1.9,0.5-2.9,0.3c-0.2,0-0.4-0.1-0.6-0.1
		c-0.1,0-0.1,0-0.2,0c0,0-0.1,0-0.1,0c-0.4-0.1-0.9-0.2-1.3-0.5c0,0,0,0,0,0c-1.1-0.4-1.9-1-2.6-1.8c-1.5-1.6-2-3.7-2.3-5.9
		C49.9,54.6,50.3,54.6,50.7,54.6z"/>
	<polygon class="st0" points="60.6,62.1 60.6,62.1 60.6,62.1 	"/>
	<path class="st0" d="M57.7,39.8c-0.5,1.5-1,2.8-1.6,3.8c-0.3,0.6-0.6,1.1-0.9,1.5c-0.6,0.8-1.1,1.4-1.7,1.8l0.5,0.5
		c1.1-0.4,2.3-0.9,3.4-1.6c0.6-0.4,1.2-0.8,1.7-1.2c0.8-0.6,1.5-1.4,2.2-2.4L57.7,39.8z"/>
	<g>
		<path class="st0" d="M45.7,63.7l-4.2-6.3c-1.1-2.7-5.4-2.5-5.4-2.5l3.4,5.4c1.1,2.5,4.4,5.8,4.4,5.8c2.3,1.9,7.3,1.1,7.3,1.1
			C46.8,65.6,45.7,63.7,45.7,63.7z"/>
		<path class="st0" d="M33,60.4c0-0.6,0.2-1.7,0.8-2.9c0.6-1.2,1.4-2,1.9-2.4c1-0.6,2-1.3,2.9-1.9c1.1-0.7,2.6-1.8,3.9-3.5
			c1-1.2,1.6-2.4,2-3.4c0.3-0.9,1.2-3.8-0.2-6.1c-0.2-0.2-0.3-0.5-0.6-0.7c-0.2-0.2-0.5-0.4-0.8-0.6c-0.5-0.3-1.3-0.7-2.2-1
			c0.5,0.4,1.2,1.2,1.6,2.4c0.6,1.6,0.5,2.9,0.5,3.6c-0.1,0.6-0.3,1.4-0.7,2.2c-0.6,1.3-1.4,2.2-1.9,2.8c-0.4,0.5-0.9,1-1.4,1.5
			c-0.7,0.6-1.3,1.1-1.9,1.5c-0.7,0.5-1.7,1.1-2.6,2c-0.8,0.8-1.5,1.6-1.9,2.3c-0.2,0.3-0.5,0.7-0.8,1.3c-0.3,0.7-0.4,1.3-0.4,1.5
			c-0.1,1.1,0.1,2,0.3,2.5c0.1,0.3,0.8,1.9,2.6,2.6c0.8,0.3,1.6,0.2,2,0.2c-0.3,0-1.2-0.2-2-1C32.9,62.1,33,60.6,33,60.4z"/>
		<path class="st0" d="M31.8,62.9c-0.9-1.2-1-2.4-1.1-2.9c-0.1-0.8-0.1-2.4,0.8-4.2c0.6-1.4,1.5-2.3,2.1-2.8
			c0.9-0.7,1.7-1.4,2.6-2.1c0.9-0.6,2.2-1.5,3.4-3c0.9-1.1,1.5-2.2,1.9-3.1c0.2-0.6,0.7-2.2,0.2-4.1c-0.4-1.4-1.2-2.3-1.6-2.8
			c-0.2-0.1-0.4-0.3-0.6-0.4c-0.4-0.2-1.1-0.4-2.2-0.4c0,0-4.9-0.2-5.6-0.2h-8.9l-0.2,0.2c0,0,2.8,0.1,3.3,1.9c0,0,0.8,1.1,0.5,4.1
			v7.9v11.8c0,0,0.1,2.8-2.3,3.5c0,0-0.5,0.2-1,0.3c0,0-0.5,0.1-0.6,0.4l0.6,0c-0.1,0-0.1,0-0.2,0h10.8c-0.2,0-0.4,0-0.5-0.1l0.4,0
			c0,0-1-0.3-1.7-0.7c0,0-0.5-0.4-1-1l0,0c-0.2-0.3-0.5-0.5-0.7-0.8c-1.2-1.6-1.7-3.6-1.9-5c0-0.2-0.1-0.4-0.1-0.6
			c-0.1-0.6-0.1-1.2,0-1.8c0,0,0.1-3.7,2.9-6l1.8-1.4c0,0,4.2-2.7,5.3-5.1c0,0,1.6-2.1,1.1-5.8c0,0,1.4,2.2,0.7,4.1
			c0,0-0.2,1.8-1.8,3.7c0,0-1.9,2.1-3,2.7l-2.2,1.6c0,0-2.2,1.6-2.9,3c0,0-1.3,1.8-1.2,4.2c0,0,0,0.6,0.1,1.3c0.1,0.8,0.4,1.7,1,2.5
			c0,0,0.1,0.1,0.2,0.3c0.4,0.5,1.5,1.6,3,2.1c0,0,1.1,0.4,2.1,0.4C34.8,64.9,33,64.5,31.8,62.9z M37.9,39.7c0,0,0,1.9-0.9,3.5
			c0,0-1,1.9-2.4,3.1l-2.3,2c0,0-1.4,1.1-2.1,2.1c0,0-1.3,1.8-1.5,2.9c0,0-0.7,1.8-0.7,3.2c0,0-0.9-2.4,0.7-5.2c0,0,1.1-1.6,1.7-2.3
			c0,0,0.4-0.3,0.4-1v-8.9c0,0-0.1-0.9,0.6-1.2c0,0,3.8-0.7,6.1,0.2C37.4,38.1,38.1,38.1,37.9,39.7z"/>
	</g>
	<g>
		<path class="st0" d="M83.2,33.2c-0.4,0-0.9-0.1-1.2-0.5c-1.6-1.7-3.2-3.4-4.8-5.1c-0.7-0.8-0.7-1.9,0-2.5c0.6-0.6,1.5-0.4,2.3,0.4
			c0.9,1,1.9,2,2.8,2.9c0.9,1,0.9,1,1.9,0c2.6-2.6,5.2-5.3,7.8-7.9c0.3-0.3,0.7-0.7,1.1-0.8c0.7-0.2,1.2,0,1.7,0.5
			c0.4,0.5,0.5,1,0.1,1.6c-0.5,0.7-1.1,1.3-1.7,1.9c-2.8,2.8-5.6,5.7-8.4,8.5C84.4,32.7,83.9,33.2,83.2,33.2z"/>
		<g>
			<path class="st0" d="M76.9,10.7L76.9,10.7c1,0,1.9-0.8,1.9-1.9V4.2c0-1-0.8-1.9-1.9-1.9l0,0c-1,0-1.9,0.8-1.9,1.9v4.6
				C75,9.8,75.9,10.7,76.9,10.7z"/>
			<path class="st0" d="M100.9,7.1h-3.3v2.2c0,1.7-1.4,3-3,3h0c-1.7,0-3-1.4-3-3V7.1H79.9v2.2c0,1.7-1.4,3-3,3h0c-1.7,0-3-1.4-3-3
				V7.1h-3c-1.6,0-3,1.3-3,3v27.8c0,1.6,1.3,3,3,3h30c1.6,0,3-1.3,3-3V10.1C103.9,8.4,102.6,7.1,100.9,7.1z M100.1,36.2
				c0,0.5-0.4,0.9-0.9,0.9H72.6c-0.5,0-0.9-0.4-0.9-0.9V16.5c0-0.5,0.4-0.9,0.9-0.9h26.6c0.5,0,0.9,0.4,0.9,0.9V36.2z"/>
			<path class="st0" d="M94.8,10.7L94.8,10.7c1,0,1.9-0.8,1.9-1.9V4.2c0-1-0.8-1.9-1.9-1.9l0,0c-1,0-1.9,0.8-1.9,1.9v4.6
				C93,9.8,93.8,10.7,94.8,10.7z"/>
		</g>
	</g>
</g>
</svg>
